<svg xmlns="http://www.w3.org/2000/svg" xmlns:xlink="http://www.w3.org/1999/xlink" fill="none" version="1.1" width="945" height="945" viewBox="0 -25 945 945"><g><g><g transform="matrix(-1,0,0,1,1890,0)"><path d="M1890,445.5C1890,691.543,1678.455,891,1417.5,891Q1362.859,891,1068.2930000000001,891C1037.664,891,1026.9869,847.162,1051.503,828.801Q1109.638,785.262,1083.392,760.516C997.8863,679.896,945,568.521,945,445.5C945,199.457,1156.545,0,1417.5,0C1678.455,0,1890,199.457,1890,445.5Z" fill="#DB2777" fill-opacity="1"/></g><g><g><g><path d="M554.5431572265625,300.555086C577.8227572265625,297.53669,593.4257572265625,306.82795,601.3520572265625,328.4273C597.6105572265625,390.1117,595.4196572265625,451.868,594.7823572265625,513.6949999999999C596.7056572265625,515.979,599.1692572265625,517.347,602.1732572265626,517.794C614.8920572265625,517.963,627.4846572265625,519.0550000000001,639.9486572265625,521.073C663.5866572265625,531.976,670.4286572265626,549.737,660.4786572265625,574.358C655.6406572265626,582.466,648.7976572265625,588.204,639.9486572265625,591.5740000000001C618.5546572265625,591.8050000000001,597.2032572265625,590.713,575.8945572265625,588.2950000000001C547.4019572265624,583.909,529.0610772265625,567.787,520.8736572265625,539.928C521.9707872265625,469.928,524.7070772265625,399.97360000000003,529.0857372265625,330.0668C533.3987572265625,316.475,541.8834572265625,306.63777,554.5431572265625,300.555086Z" fill-rule="evenodd" fill="#FFFFFF" fill-opacity="1"/></g></g><g><g><path d="M226.06,302.1946778508148C241.399,301.9225388508148,256.72900000000004,302.1946778508148,272.048,303.0144488508148C296.797,314.99295685081483,303.09299999999996,333.3000568508148,290.935,357.93905685081484C286.522,363.9955568508148,280.774,368.09435685081485,273.69,370.23565685081485C247.487,372.6670568508148,221.208,374.3066568508148,194.85410000000002,375.1542568508148C193.486,376.52005685081485,192.1162,377.88735685081485,190.7481,379.25315685081483C188.6146,391.5267568508148,190.5313,403.0036568508148,196.4965,413.6836568508148C199.2344,414.2296568508148,201.9707,414.7766568508148,204.7086,415.32265685081484C221.11,411.6336568508148,237.534,411.36065685081485,253.981,414.5036568508148C272.29200000000003,424.58165685081485,278.041,439.6116568508148,271.226,459.5906568508148C265.723,472.7396568508148,256.14300000000003,481.21165685081485,242.484,485.0036568508148C231.495,485.2806568508148,220.54500000000002,486.10065685081486,209.6359,487.4626568508148C206.4069,492.46165685081485,205.5857,497.9266568508148,207.1722,503.8586568508148C208.8689,517.1906568508148,211.60680000000002,530.3076568508149,215.38400000000001,543.2076568508148C218.084,566.7186568508148,208.5042,582.8396568508149,186.642,591.5736568508148C163.7057,594.2066568508149,148.6513,584.6416568508148,141.4756,562.8816568508148C133.2668,508.25565685081483,125.0547,453.6046568508148,116.83936,398.9276568508148C108.47124,364.4054568508148,118.60002,336.8053568508148,147.2241,316.1307568508148C155.6102,311.8515968508148,164.3709,308.5725168508148,173.5027,306.2935268508148C191.3163,305.4589968508148,208.836,304.0932468508148,226.06,302.1946778508148Z" fill-rule="evenodd" fill="#FFFFFF" fill-opacity="1"/></g></g><g><path d="M494.59483264160156,415.32315382080077C467.3848326416016,369.7061538208008,427.1458326416016,350.5776438208008,373.87753264160153,357.93917382080076C314.34323264160156,377.2988538208008,286.6964526416016,418.2874538208008,290.93551564160157,480.9048538208008C301.14153264160154,526.6148538208008,328.78823264160155,555.8528538208008,373.87753264160153,568.6198538208008C404.80583264160157,573.2488538208008,433.2758326416016,567.2368538208008,459.28283264160154,550.5848538208008C503.79883264160156,514.1068538208008,515.5708326416016,469.0198538208008,494.59483264160156,415.32315382080077ZM357.45353264160156,454.6722538208008C357.09713264160155,462.4268538208008,357.64563264160154,470.07885382080076,359.09593264160156,477.6258538208008C363.5320326416016,488.89085382080077,371.19723264160154,497.36285382080075,382.0897326416016,503.0388538208008C407.71983264160156,508.68985382080075,426.06083264160156,499.6728538208008,437.1108326416016,475.9858538208008C441.67183264160155,457.9548538208008,437.0168326416016,442.9249538208008,423.14983264160156,430.8989538208008C392.54383264160157,415.3101538208008,370.6454326416016,423.2340538208008,357.45353264160156,454.6722538208008Z" fill-rule="evenodd" fill="#FFFFFF" fill-opacity="1"/></g><g><path d="M865.7808173828125,428.4395779968262C850.3228173828124,387.58057799682615,821.0338173828125,364.08100799682614,777.9118173828125,357.93928359682616C765.8108173828125,357.63922499682616,753.7666173828125,358.18520499682614,741.7786173828125,359.5788279968262C726.5895173828125,361.69384799682615,712.9016173828124,367.4322379968262,700.7182173828126,376.7939779968262C653.3246673828125,417.1381779968262,643.1975173828125,465.50447799682615,670.3335173828125,521.8934779968262C708.9368173828125,574.3604779968261,757.9368173828125,586.6564779968262,817.3298173828125,558.7834779968262C864.2668173828125,526.9944779968262,880.4178173828125,483.5464779968262,865.7808173828125,428.4395779968262ZM798.4418173828125,489.10247799682617C812.0898173828125,458.99947799682616,803.6038173828125,438.23097799682614,772.9838173828125,426.8000779968262C764.7118173828125,426.6574779968262,756.4998173828125,427.20347799682617,748.3480173828125,428.43967799682616C739.8272173828125,431.74497799682615,732.9849173828125,437.21117799682617,727.8178173828126,444.83507799682616C717.4460173828124,466.31947799682615,721.0051173828125,485.17447799682617,738.4935173828125,501.39947799682614C762.2628173828125,514.4664779968261,782.2458173828124,510.3674779968262,798.4418173828125,489.10247799682617Z" fill-rule="evenodd" fill="#FFFFFF" fill-opacity="1"/></g></g></g></g></svg>